<?xml version="1.0" encoding="utf-8"?><svg viewBox="0 0 83 86" xmlns="http://www.w3.org/2000/svg" xmlns:xlink="http://www.w3.org/1999/xlink"><style>:root>svg{display:none}:root>svg:target{display:block}</style><svg viewBox="0 0 83 82" id="advatages1" xmlns="http://www.w3.org/2000/svg"><path d="M31.34 26.908c-7.754-.8-15.877 1.661-21.785 7.569-3.753 3.63-6.092 8.123-7.2 12.8 2.154 1.969 4.37 4 6.524 6.03l22.461-26.4zM55.647 49.8L28.324 72.384c2.339 2.4 4.616 4.8 6.831 7.2 4.738-1.046 9.292-3.384 12.985-7.077A25.943 25.943 0 0055.647 49.8zm-39.385-4.308L36.2 65.184l29.293-24.246A39.907 39.907 0 0079.4 2.908C65.431.383 50.6 5.122 40.816 16.569L16.262 45.492zm3.138 25.6c-2.523 2.523-15.323 6.093-15.323 6.093-.185.184 3.57-12.616 6.154-15.139 2.523-2.523 6.646-2.523 9.23 0 2.462 2.523 2.462 6.585-.061 9.046z"/><path d="M70.11 12.077a66.584 66.584 0 018.185 9.723c1.847-6.092 2.277-12.615 1.108-18.892-6.4-1.17-12.985-.8-19.2 1.046a71.542 71.542 0 019.908 8.123zm-5.045 17.661c-3.57 3.508-9.354 3.508-12.923 0-3.57-3.507-3.57-9.23 0-12.8 3.569-3.507 9.354-3.507 12.923 0 3.57 3.57 3.57 9.293 0 12.8zm-43.819 8.554l22.277 21.97"/></svg><svg viewBox="0 0 82 82" id="advatages2" xmlns="http://www.w3.org/2000/svg"><path d="M40.633 79.78C19.413 79.78 2.22 62.404 2.22 41c0-21.402 17.195-38.78 38.414-38.78 21.22 0 38.415 17.378 38.415 38.78"/><path d="M79.047 41v1.22m-.182 2.5c-1.769 18.84-16.952 33.72-35.732 34.939m-1.281.121h-1.22M61 31.183l-7.5-7.56-19.328 19.511-5.793-5.853-7.5 7.56L34.11 58.379 61 31.183z"/></svg><svg viewBox="0 0 82 82" id="advatages3" xmlns="http://www.w3.org/2000/svg"><path d="M64.938 18.846v-5.908c0-3.016 2.461-5.416 5.476-5.416 3.016 0 5.477 2.4 5.477 5.416v5.908H64.937z"/><path d="M52.074 7.522h17.662c-2.708.308-4.8 2.585-4.8 5.354V31.83M14 70.39V71v-5m50.937 2.63v5.785c0 2.769-2.092 5.046-4.8 5.353H9.43"/><path d="M54.907 71.645v2.708c0 2.77 2.092 5.046 4.8 5.354H8.999c-2.707-.308-4.8-2.585-4.8-5.354v-2.707h50.708zm10.031-58.707c0-3.016 2.461-5.416 5.476-5.416 3.016 0 5.477 2.4 5.477 5.416v7.57"/><path d="M54.906 69.984v4.37c0 2.768 2.462 5.353 5.108 5.353M46.23 60.754a.683.683 0 01-.676.677H2.907a.683.683 0 01-.677-.677V2.907c0-.369.308-.677.677-.677h42.585c.37 0 .677.308.677.677v57.847h.062z"/><path d="M46.23 9.984v44.123c0 .37-.307.677-.676.677H2.907a.683.683 0 01-.677-.676V9.983"/><path d="M39.337 11.153H9.12v7.631h30.215v-7.63zM7.832 26.538h5.538m3.571 0h5.539m3.504 0h5.539m3.508 0h5.539M7.832 33.37h5.538m3.571 0h5.539m3.504 0h5.539m3.508 0h5.539M7.832 40.138h5.538m3.571 0h5.539m3.504 0h5.539m3.508 0h5.539M7.832 46.969h5.538m3.571 0h5.539m3.504 0h5.539m3.508 0h5.539m37.536 3.816c0 7.261-5.908 13.169-13.23 13.169-7.324 0-13.232-5.908-13.232-13.17 0-7.261 5.908-13.169 13.231-13.169 7.262-.061 13.231 5.846 13.231 13.17z"/><path d="M64.814 56.077V43.893l-4.185 4.369m1.293 7.754h5.723m8.245-31.139v10.585m5.354-5.293H70.598"/></svg><svg viewBox="0 0 71 86" id="advatages4" xmlns="http://www.w3.org/2000/svg"><path d="M55.025 62.497l5.408 12.491-10.366-.322-6.954 7.598-3.863-8.821m-5.15-5.538l-5.86 14.359-7.083-7.47-10.302.516 3.284-8.242"/><path d="M69 35.325c0 1.675-3.09 3.091-3.348 4.7-.258 1.675 2.253 3.928 1.738 5.538-.515 1.61-3.927 1.996-4.636 3.477-.772 1.48.902 4.443-.064 5.795-.966 1.352-4.314.708-5.537 1.867-1.16 1.159-.515 4.507-1.867 5.473-1.353.966-4.314-.644-5.795.064-1.481.773-1.867 4.121-3.477 4.636-1.546.515-3.864-1.931-5.538-1.674-1.61.258-3.09 3.284-4.764 3.284-1.674 0-3.155-3.09-4.765-3.284-1.674-.257-3.992 2.19-5.537 1.674-1.61-.515-1.996-3.863-3.477-4.636-1.481-.772-4.443.902-5.795-.064-1.352-.966-.708-4.314-1.867-5.473-1.16-1.159-4.507-.515-5.537-1.867-.966-1.352.643-4.314-.065-5.795-.772-1.48-4.12-1.867-4.636-3.477-.515-1.545 1.996-3.863 1.739-5.537-.451-1.61-3.542-3.026-3.542-4.7 0-1.675 3.091-3.091 3.349-4.7.257-1.675-2.254-3.928-1.739-5.538.515-1.61 3.928-1.996 4.636-3.477.773-1.48-.901-4.443.064-5.795.966-1.352 4.314-.708 5.538-1.867 1.159-1.159.515-4.507 1.867-5.473 1.352-.966 4.314.644 5.795-.064 1.48-.773 1.867-4.121 3.477-4.636 1.545-.515 3.863 1.931 5.537 1.674 1.738-.129 3.155-3.22 4.893-3.22 1.675 0 3.155 3.091 4.765 3.284 1.674.258 3.992-2.189 5.537-1.674 1.61.515 1.996 3.863 3.477 4.636 1.481.773 4.443-.901 5.795.064 1.352.966.708 4.314 1.867 5.473 1.16 1.16 4.508.515 5.538 1.868.966 1.352-.644 4.314.064 5.794.773 1.481 4.12 1.868 4.636 3.477.515 1.546-1.996 3.863-1.738 5.538.321 1.545 3.412 2.96 3.412 4.635z"/><path d="M57.28 35.326c0 11.847-9.658 21.44-21.634 21.44s-21.634-9.593-21.634-21.44c0-11.848 9.658-21.441 21.634-21.441 11.911 0 21.634 9.594 21.634 21.44z"/><path d="M35.645 26.183l2.833 5.666 6.374.966-4.636 4.442 1.095 6.246-5.666-2.962-5.73 2.962 1.094-6.246-4.572-4.442 6.375-.966 2.833-5.666z"/></svg><svg viewBox="0 0 64 81" id="advatages5" xmlns="http://www.w3.org/2000/svg"><path d="M62.91 77.43l-8.985-.615c-.492-2.707-1.477-5.17-2.892-7.446l4.861-5.723-5.784-5.785-5.6 4.739c-2.216-1.477-4.677-2.585-7.323-3.2l-.616-7.508h-8.184l-.616 7.262c-2.707.492-5.17 1.477-7.446 2.892l-5.723-4.862-5.785 5.785 4.739 5.6a21.45 21.45 0 00-3.2 7.262l-9.231.615"/><path d="M16.262 81c0-8.677 7.015-15.692 15.692-15.692M22.91 81a9.087 9.087 0 019.108-9.108A9.087 9.087 0 0141.126 81m20.058-10.585V22.477M40.939 2.23H2.785v68.185M45.863 17.8h12.923L45.863 4.938V17.8zm-34.398.123h21.477M11.465 44.446H28.51M11.465 26.784h39.508m-39.508 8.861h39.508"/></svg><svg viewBox="0 0 26 26" id="close-btn" xmlns="http://www.w3.org/2000/svg"><path d="M25 1L13 13m0 0L1 25m12-12l12 12M13 13L1 1"/></svg><svg viewBox="0 0 24 24" id="katalog" xmlns="http://www.w3.org/2000/svg"><path d="M5 5h2v2H5V5zm0 6h2v2H5v-2zm0 6h2v2H5v-2zm6-12h2v2h-2V5zm0 6h2v2h-2v-2zm0 6h2v2h-2v-2zm6-12h2v2h-2V5zm0 6h2v2h-2v-2zm0 6h2v2h-2v-2z"/></svg><svg viewBox="0 0 24 24" id="phone" xmlns="http://www.w3.org/2000/svg"><path d="M19.3 13.716a9.827 9.827 0 00-.154-7.651L15.87 6a.097.097 0 00-.1.097l-.027 4.02c0 .026.01.051.028.07l3.53 3.529zm0 0a9.956 9.956 0 01-2.22 3.365 9.956 9.956 0 01-3.364 2.219m0 0a9.827 9.827 0 01-7.651-.154L6 15.87a.097.097 0 01.097-.1l4.02-.027c.026 0 .051.01.07.028l3.529 3.53zM8 13a5 5 0 015-5m-9 5a9 9 0 019-9"/></svg><svg viewBox="0 0 24 24" id="price" xmlns="http://www.w3.org/2000/svg"><path d="M19 8h1a1 1 0 00-.293-.707L19 8zm-5-5l.707-.707A1 1 0 0014 2v1zm0 5h-1v1h1V8zm5 12h1-1zM6 22h12v-2H6v2zM4 4v16h2V4H4zm16 16V8h-2v12h2zM14 2H6v2h8V2zm5.707 5.293l-5-5-1.414 1.414 5 5 1.414-1.414zM13 3v5h2V3h-2zm1 6h5V7h-5v2zm-6 4h8v-2H8v2zm0 4h8v-2H8v2zm10 5a2 2 0 002-2h-2v2zM6 20H4a2 2 0 002 2v-2zM6 4V2a2 2 0 00-2 2h2z"/></svg><svg viewBox="0 0 24 24" id="search" xmlns="http://www.w3.org/2000/svg"><path d="M15 15l5 5"/><circle cx="10.5" cy="10.5" r="6.5"/></svg><svg viewBox="0 0 23 40" id="stock-next" xmlns="http://www.w3.org/2000/svg"><path d="M2 38l18-18L2 2"/></svg><svg viewBox="0 0 23 40" id="stock-prev" xmlns="http://www.w3.org/2000/svg"><path d="M21 38L3 20 21 2"/></svg></svg>